# File created by Blade
# Date/Time:  Thu Jan 22 16:36:34 2015
#---------------------------------------------------------
:version 1.10
:name HOM
:units
  mass 1.0
  length 1.000000
  angle deg
:documentation
     Acclaim Skeleton File
:root
   axis xyz
   order TX TY TZ RX RY RZ
   position 0.000000 0.000000 0.000000
   orientation 0 0 0
:bonedata
   begin
      id 1
      name RightUpLeg_dum
      direction -1.000000 0.000000 0.000000
      length 3.766986
      axis 0.0 0.0 0.0 xyz
   end
   begin
      id 2
      name LeftUpLeg_dum
      direction 1.000000 0.000000 0.000000
      length 3.766986
      axis 0.0 0.0 0.0 xyz
   end
   begin
      id 3
      name Spine_dum
      direction 0.000000 1.000000 0.000000
      length 7.779697
      axis 0.0 0.0 0.0 xyz
   end
   begin
      id 4
      name RightUpLeg
      direction 0.000000 -1.000000 0.000000
      length 18.017682
      axis 0.0 0.0 0.0 xyz
      dof rx ry rz
   end
   begin
      id 5
      name RightLeg
      direction 0.000000 -1.000000 0.000000
      length 16.881075
      axis 0.0 0.0 0.0 xyz
      dof rx ry rz
   end
   begin
      id 6
      name RightFoot
      direction 0.000000 -0.258819 0.965926
      length 5.770812
      axis 15.0 0.0 0.0 xyz
      dof rx ry rz
   end
   begin
      id 7
      name RightToeBase
      direction 0.000000 0.000000 1.000000
      length 2.952750
      axis 0.0 0.0 0.0 xyz
      dof rx ry rz
   end
   begin
      id 8
      name LeftUpLeg
      direction 0.000000 -1.000000 0.000000
      length 18.017682
      axis 0.0 0.0 0.0 xyz
      dof rx ry rz
   end
   begin
      id 9
      name LeftLeg
      direction 0.000000 -1.000000 0.000000
      length 16.881075
      axis 0.0 0.0 0.0 xyz
      dof rx ry rz
   end
   begin
      id 10
      name LeftFoot
      direction 0.000000 -0.258819 0.965926
      length 5.770812
      axis 15.0 0.0 0.0 xyz
      dof rx ry rz
   end
   begin
      id 11
      name LeftToeBase
      direction 0.000000 0.000000 1.000000
      length 2.952750
      axis 0.0 0.0 0.0 xyz
      dof rx ry rz
   end
   begin
      id 12
      name Spine
      direction 0.000000 1.000000 0.000000
      length 0.000000
      axis 0.0 0.0 0.0 xyz
      dof rx ry rz
   end
   begin
      id 13
      name Spine_dum1
      direction 0.000000 1.000000 0.000000
      length 10.941760
      axis 0.0 0.0 0.0 xyz
   end
   begin
      id 14
      name Spine_dum2
      direction 0.000000 1.000000 0.000000
      length 10.941760
      axis 0.0 0.0 0.0 xyz
   end
   begin
      id 15
      name Spine_dum3
      direction 0.000000 1.000000 0.000000
      length 16.646042
      axis 0.0 0.0 0.0 xyz
   end
   begin
      id 16
      name RightShoulder
      direction -1.000000 0.000000 0.000000
      length 7.708937
      axis 0.0 0.0 90.0 xyz
      dof rx ry rz
   end
   begin
      id 17
      name RightArm
      direction -1.000000 0.000000 0.000000
      length 11.521345
      axis 0.0 0.0 90.0 xyz
      dof rx ry rz
   end
   begin
      id 18
      name RightForeArm
      direction -1.000000 0.000000 0.000000
      length 10.175898
      axis 0.0 0.0 90.0 xyz
      dof ry rz rx
   end
   begin
      id 19
      name RightHand
      direction -1.000000 0.000000 0.000000
      length 0.000000
      axis 0.0 0.0 90.0 xyz
      dof rx ry rz
   end
   begin
      id 20
      name RightHand_dum1
      direction -1.000000 0.000000 0.000000
      length 3.937000
      axis 0.0 0.0 90.0 xyz
   end
   begin
      id 21
      name RightHand_dum2
      direction 0.000000 0.000000 0.000000
      length 0.000000
      axis 0.0 0.0 90.0 xyz
   end
   begin
      id 22
      name RightHandThumb1
      direction 0.000000 0.000000 1.000000
      length 3.937000
      axis 0.0 0.0 90.0 xyz
      dof rx rz ry
   end
   begin
      id 23
      name LeftShoulder
      direction 1.000000 0.000000 0.000000
      length 7.708937
      axis 0.0 0.0 -90.0 xyz
      dof rx ry rz
   end
   begin
      id 24
      name LeftArm
      direction 1.000000 0.000000 0.000000
      length 11.521345
      axis 0.0 0.0 -90.0 xyz
      dof rx ry rz
   end
   begin
      id 25
      name LeftForeArm
      direction 1.000000 0.000000 0.000000
      length 10.175898
      axis 0.0 0.0 -90.0 xyz
      dof ry rz rx
   end
   begin
      id 26
      name LeftHand
      direction 1.000000 0.000000 0.000000
      length 0.000000
      axis 0.0 0.0 -90.0 xyz
      dof rx ry rz
   end
   begin
      id 27
      name LeftHand_dum1
      direction 1.000000 0.000000 0.000000
      length 3.937000
      axis 0.0 0.0 -90.0 xyz
   end
   begin
      id 28
      name LeftHand_dum2
      direction 0.000000 0.000000 0.000000
      length 0.000000
      axis 0.0 0.0 -90.0 xyz
   end
   begin
      id 29
      name LeftHandThumb1
      direction 0.000000 0.000000 1.000000
      length 3.937000
      axis 0.0 0.0 -90.0 xyz
      dof rx rz ry
   end
   begin
      id 30
      name Head
      direction 0.000000 1.000000 0.000000
      length 4.527550
      axis 0.0 0.0 0.0 xyz
      dof rx ry rz
   end
:hierarchy
   begin
      root RightUpLeg_dum LeftUpLeg_dum Spine_dum
      RightUpLeg_dum RightUpLeg
      LeftUpLeg_dum LeftUpLeg
      Spine_dum Spine
      RightUpLeg RightLeg
      RightLeg RightFoot
      RightFoot RightToeBase
      LeftUpLeg LeftLeg
      LeftLeg LeftFoot
      LeftFoot LeftToeBase
      Spine Spine_dum1 Spine_dum2 Spine_dum3
      Spine_dum1 RightShoulder
      Spine_dum2 LeftShoulder
      Spine_dum3 Head
      RightShoulder RightArm
      RightArm RightForeArm
      RightForeArm RightHand
      RightHand RightHand_dum1 RightHand_dum2
      RightHand_dum2 RightHandThumb1
      LeftShoulder LeftArm
      LeftArm LeftForeArm
      LeftForeArm LeftHand
      LeftHand LeftHand_dum1 LeftHand_dum2
      LeftHand_dum2 LeftHandThumb1
   end

# File created by Blade
# Date/Time:  Thu Jan 22 16:36:26 2015
# Frame Rate: 120.000 fps
#------------------------------------------------------
:FULLY-SPECIFIED
:DEGREES
930
root 2.120845 3.535172 -11.683254 -67.334630 7.068677 3.515358
RightUpLeg -20.301606 11.523172 -10.947914
RightLeg -0.167353 -0.000000 0.000000
RightFoot 5.780815 -28.283883 28.527250
RightToeBase 7.123642 -0.000000 -0.000000
LeftUpLeg -124.115529 21.477328 -55.292010
LeftLeg 142.613309 -0.000000 -0.000000
LeftFoot 34.298794 -2.274066 -61.646865
LeftToeBase -4.249397 -0.000000 0.000000
Spine 73.491801 7.757810 -6.327979
RightShoulder 14.554210 -12.970747 -23.831195
RightArm 25.747785 -12.759098 85.342091
RightForeArm 58.177009 -0.000000 100.704355
RightHand 13.027317 -0.000000 -29.977784
RightHandThumb1 -24.326973 -0.000000 -32.862282
LeftShoulder -3.417794 28.445355 38.887403
LeftArm 82.275038 24.222854 -72.262134
LeftForeArm 20.617994 -0.000000 72.292988
LeftHand -29.298379 -0.000000 -15.310640
LeftHandThumb1 -26.253704 0.000000 33.147579
Head 14.185667 2.867241 10.847755
931
root 2.120698 3.535426 -11.686338 -67.363928 7.037268 3.538389
RightUpLeg -20.285386 11.585125 -10.927647
RightLeg -0.156674 -0.000000 0.000000
RightFoot 5.781438 -28.314185 28.485764
RightToeBase 7.055541 -0.000000 -0.000000
LeftUpLeg -124.174365 21.509539 -55.280060
LeftLeg 142.625983 -0.000000 -0.000000
LeftFoot 34.336801 -2.278672 -61.618100
LeftToeBase -4.235743 -0.000000 0.000000
Spine 73.482862 7.814008 -6.316044
RightShoulder 14.546857 -12.973713 -23.811127
RightArm 25.744459 -12.779881 85.302972
RightForeArm 58.180067 0.000000 100.707807
RightHand 13.042509 -0.000000 -29.961944
RightHandThumb1 -24.326973 -0.000000 -32.862282
LeftShoulder -3.478491 28.671571 38.818322
LeftArm 82.579111 24.135594 -72.080384
LeftForeArm 20.747480 -0.000000 72.263783
LeftHand -29.339349 0.000000 -15.555005
LeftHandThumb1 -26.253704 0.000000 33.147579
Head 14.212605 2.871026 10.891667
932
root 2.120052 3.535794 -11.692252 -67.387601 7.009038 3.539068
RightUpLeg -20.270445 11.607341 -10.890641
RightLeg -0.158955 -0.000000 0.000000
RightFoot 5.744535 -28.407335 28.560392
RightToeBase 7.125444 -0.000000 -0.000000
LeftUpLeg -124.207095 21.534819 -55.235657
LeftLeg 142.630142 -0.000000 -0.000000
LeftFoot 34.435214 -2.283202 -61.655315
LeftToeBase -4.280172 -0.000000 0.000000
Spine 73.475594 7.827281 -6.327042
RightShoulder 14.551965 -13.019374 -23.809957
RightArm 25.799199 -12.781190 85.327926
RightForeArm 58.137114 -0.000000 100.695342
RightHand 12.975667 0.000000 -29.868386
RightHandThumb1 -24.326973 -0.000000 -32.862282
LeftShoulder -3.540174 28.510723 38.780931
LeftArm 82.425144 24.194413 -72.103167
LeftForeArm 20.751424 -0.000000 72.248734
LeftHand -29.339244 -0.000000 -15.544376
LeftHandThumb1 -26.253704 0.000000 33.147579
Head 14.229685 2.922284 10.902912
933
root 2.119075 3.535311 -11.696847 -67.409281 6.987317 3.535407
RightUpLeg -20.257237 11.626692 -10.863142
RightLeg -0.149952 -0.000000 0.000000
RightFoot 5.679805 -28.470607 28.610805
RightToeBase 7.174904 -0.000000 -0.000000
LeftUpLeg -124.244658 21.510079 -55.227733
LeftLeg 142.647438 -0.000000 -0.000000
LeftFoot 34.320353 -2.237237 -61.696573
LeftToeBase -4.058012 -0.000000 0.000000
Spine 73.462184 7.848932 -6.313677
RightShoulder 14.535281 -13.031986 -23.798957
RightArm 25.826573 -12.798952 85.332831
RightForeArm 58.145524 0.000000 100.653977
RightHand 12.994900 0.000000 -29.809747
RightHandThumb1 -24.326973 -0.000000 -32.862282
LeftShoulder -3.557497 28.461644 38.758780
LeftArm 82.386644 24.211929 -72.087813
LeftForeArm 20.775602 -0.000000 72.241715
LeftHand -29.345263 0.000000 -15.503627
LeftHandThumb1 -26.253704 0.000000 33.147579
Head 14.251325 2.931682 10.926444
934
root 2.120821 3.535734 -11.703032 -67.443084 6.988545 3.501748
RightUpLeg -20.218704 11.604573 -10.844900
RightLeg -0.147171 -0.000000 0.000000
RightFoot 5.646804 -28.520600 28.657068
RightToeBase 7.137139 -0.000000 -0.000000
LeftUpLeg -124.225734 21.500465 -55.192730
LeftLeg 142.648166 -0.000000 -0.000000
LeftFoot 34.308939 -2.246518 -61.691604
LeftToeBase -4.278575 -0.000000 0.000000
Spine 73.466429 7.840924 -6.301322
RightShoulder 14.509702 -12.972451 -23.773255
RightArm 25.795800 -12.836990 85.274688
RightForeArm 58.285085 0.000000 100.614320
RightHand 13.018002 -0.000000 -29.749130
RightHandThumb1 -24.326973 -0.000000 -32.862282
LeftShoulder -3.569507 28.463104 38.765390
LeftArm 82.438436 24.224999 -72.066585
LeftForeArm 20.780719 -0.000000 72.186122
LeftHand -29.392409 -0.000000 -15.640363
LeftHandThumb1 -26.253704 0.000000 33.147579
Head 14.265626 2.916902 10.959456
935
root 2.121904 3.537147 -11.707228 -67.476808 6.969787 3.519402
RightUpLeg -20.192721 11.637807 -10.830893
RightLeg -0.134046 -0.000000 0.000000
RightFoot 5.629519 -28.555966 28.660898
RightToeBase 7.146694 -0.000000 -0.000000
LeftUpLeg -124.244624 21.593165 -55.109697
LeftLeg 142.669512 -0.000000 -0.000000
LeftFoot 34.511361 -2.388237 -61.604060
LeftToeBase -4.471319 -0.000000 0.000000
Spine 73.461575 7.883450 -6.296845
RightShoulder 14.493834 -12.981447 -23.762529
RightArm 25.795473 -12.821994 85.284148
RightForeArm 58.300465 -0.000000 100.595389
RightHand 12.786050 -0.000000 -29.558620
RightHandThumb1 -24.326973 -0.000000 -32.862282
LeftShoulder -3.564388 28.458305 38.774853
LeftArm 82.432151 24.230423 -72.066008
LeftForeArm 20.771465 -0.000000 72.163030
LeftHand -29.424176 -0.000000 -15.644076
LeftHandThumb1 -26.253704 0.000000 33.147579
Head 14.275739 2.910692 10.973388
936
root 2.121663 3.536575 -11.712971 -67.495928 6.964441 3.508289
RightUpLeg -20.180585 11.641147 -10.817815
RightLeg -0.119581 -0.000000 0.000000
RightFoot 5.624777 -28.618005 28.617780
RightToeBase 7.039122 -0.000000 -0.000000
LeftUpLeg -124.268359 21.576957 -55.094274
LeftLeg 142.681373 -0.000000 -0.000000
LeftFoot 34.426722 -2.310122 -61.658414
LeftToeBase -4.366167 -0.000000 0.000000
Spine 73.443976 7.899012 -6.307450
RightShoulder 14.477178 -12.963318 -23.727398
RightArm 25.812037 -12.845336 85.293976
RightForeArm 58.345070 -0.000000 100.536082
RightHand 12.789828 -0.000000 -29.518235
RightHandThumb1 -24.326973 -0.000000 -32.862282
LeftShoulder -3.572671 28.454354 38.777928
LeftArm 82.383105 24.227743 -72.071111
LeftForeArm 20.733991 -0.000000 72.154220
LeftHand -29.245188 -0.000000 -15.592212
LeftHandThumb1 -26.253704 0.000000 33.147579
Head 14.290192 2.909443 11.006120
937
root 2.125105 3.537915 -11.719826 -67.527652 6.969832 3.497206
RightUpLeg -20.146860 11.634305 -10.817544
RightLeg -0.110501 -0.000000 0.000000
RightFoot 5.592082 -28.652973 28.668866
RightToeBase 7.201181 -0.000000 -0.000000
LeftUpLeg -124.257216 21.592338 -55.068872
LeftLeg 142.689760 -0.000000 -0.000000
LeftFoot 34.424311 -2.276632 -61.683766
LeftToeBase -4.368697 -0.000000 0.000000
Spine 73.444894 7.899587 -6.319430
RightShoulder 14.449693 -12.955524 -23.707341
RightArm 25.906823 -12.958146 85.304730
RightForeArm 58.434949 -0.000000 100.432687
RightHand 13.321735 -0.000000 -29.951023
RightHandThumb1 -24.326973 -0.000000 -32.862282
LeftShoulder -3.573294 28.476025 38.759862
LeftArm 82.369937 24.238634 -72.089652
LeftForeArm 20.716019 -0.000000 72.136129
LeftHand -29.303993 -0.000000 -15.178613
LeftHandThumb1 -26.253704 0.000000 33.147579
Head 14.290030 2.902873 11.007193
